# xmcd
#
# Track frame offsets:
#	150
#	13238
#	28051
#	40089
#	56927
#	67202
#	77942
#	94386
#	108886
#	127016
#	143878
#
# Disc length: 2211 seconds
#
# Revision: 1
# Processed by: cddbd v1.5.2PL0 Copyright (c) Steve Scherf et al.
# Submitted via: EZCDAudioConverter 7.0.6.1
#
DISCID=a408a10b
DTITLE=Bob McAllen - McAllen
DYEAR=1971
DGENRE=
TTITLE0=You've Heard The Song Before
TTITLE1=Furry Little Friend
TTITLE2=Rollin' Home
TTITLE3=By Candlelight (Love Song To A Cat)
TTITLE4=Happens All The Time
TTITLE5=Wish I Were A Whippoorwill
TTITLE6=It Depends
TTITLE7=Guess We'll Never Be That Way Again
TTITLE8=Nights Like This
TTITLE9=Lady Today
TTITLE10=Didn't You
EXTD=
EXTT0=
EXTT1=
EXTT2=
EXTT3=
EXTT4=
EXTT5=
EXTT6=
EXTT7=
EXTT8=
EXTT9=
EXTT10=
PLAYORDER=
